<?xml version="1.0" encoding="UTF-8" standalone="no"?>
<svg
   xmlns:dc="http://purl.org/dc/elements/1.1/"
   xmlns:cc="http://creativecommons.org/ns#"
   xmlns:rdf="http://www.w3.org/1999/02/22-rdf-syntax-ns#"
   xmlns:svg="http://www.w3.org/2000/svg"
   xmlns="http://www.w3.org/2000/svg"
   xmlns:sodipodi="http://sodipodi.sourceforge.net/DTD/sodipodi-0.dtd"
   xmlns:inkscape="http://www.inkscape.org/namespaces/inkscape"
   enable-background="new 0 0 500 500"
   height="500px"
   id="Layer_1"
   version="1.1"
   viewBox="0 0 500 500"
   width="500px"
   xml:space="preserve"
   inkscape:version="0.91 r13725"
   sodipodi:docname="doctor.svg"><metadata
     id="metadata4250"><rdf:RDF><cc:Work
         rdf:about=""><dc:format>image/svg+xml</dc:format><dc:type
           rdf:resource="http://purl.org/dc/dcmitype/StillImage" /></cc:Work></rdf:RDF></metadata><defs
     id="defs4248" /><sodipodi:namedview
     pagecolor="#ffffff"
     bordercolor="#666666"
     borderopacity="1"
     objecttolerance="10"
     gridtolerance="10"
     guidetolerance="10"
     inkscape:pageopacity="0"
     inkscape:pageshadow="2"
     inkscape:window-width="1024"
     inkscape:window-height="706"
     id="namedview4246"
     showgrid="false"
     inkscape:zoom="0.472"
     inkscape:cx="-167.37288"
     inkscape:cy="250"
     inkscape:window-x="1080"
     inkscape:window-y="399"
     inkscape:window-maximized="1"
     inkscape:current-layer="Layer_1" /><path
     d="m 328.655,177 -24.655,0 0,-5.559 C 304,154.707 290.548,142 273.814,142 l -45.268,0 C 211.812,142 198,154.707 198,171.441 l 0,5.559 -24.295,0 C 156.971,177 143,190.349 143,207.084 l 0,119.651 C 143,343.468 156.971,357 173.705,357 l 154.95,0 C 345.389,357 358,343.468 358,326.734 l 0,-119.65 C 358,190.349 345.389,177 328.655,177 Z M 217,171.441 C 217,165.308 222.413,160 228.546,160 l 45.268,0 c 6.133,0 11.186,5.308 11.186,11.441 l 0,5.559 -68,0 0,-5.559 z M 340,326.734 C 340,332.867 334.788,338 328.655,338 l -154.95,0 C 167.572,338 163,332.867 163,326.734 l 0,-119.65 C 163,200.951 167.572,196 173.705,196 l 24.541,0 0,0 105.867,0 0,0 24.541,0 c 6.133,0 11.345,4.951 11.345,11.084 l 0,119.65 z"
     id="path4242"
     inkscape:connector-curvature="0"
     inkscape:export-xdpi="6.6999998"
     inkscape:export-ydpi="6.6999998" /><polygon
     points="198,285 232,285 232,319 269,319 269,285 304,285 304,249 269,249 269,213 232,213 232,249 198,249 "
     id="polygon4244"
     style="fill:#d40000"
     inkscape:export-xdpi="6.6999998"
     inkscape:export-ydpi="6.6999998" /></svg>