<?xml version="1.0" encoding="UTF-8" standalone="no"?>
<svg
   xmlns:dc="http://purl.org/dc/elements/1.1/"
   xmlns:cc="http://creativecommons.org/ns#"
   xmlns:rdf="http://www.w3.org/1999/02/22-rdf-syntax-ns#"
   xmlns:svg="http://www.w3.org/2000/svg"
   xmlns="http://www.w3.org/2000/svg"
   xmlns:sodipodi="http://sodipodi.sourceforge.net/DTD/sodipodi-0.dtd"
   xmlns:inkscape="http://www.inkscape.org/namespaces/inkscape"
   height="16"
   version="1.1"
   viewBox="0 0 16 16"
   width="16"
   id="svg2"
   inkscape:version="0.91 r13725"
   sodipodi:docname="gauge.svg"
   inkscape:export-filename="C:\Users\y9if\Pictures\Gauge16.png"
   inkscape:export-xdpi="48.380001"
   inkscape:export-ydpi="48.380001">
  <metadata
     id="metadata27">
    <rdf:RDF>
      <cc:Work
         rdf:about="">
        <dc:format>image/svg+xml</dc:format>
        <dc:type
           rdf:resource="http://purl.org/dc/dcmitype/StillImage" />
        <dc:title></dc:title>
      </cc:Work>
    </rdf:RDF>
  </metadata>
  <sodipodi:namedview
     pagecolor="#ffffff"
     bordercolor="#666666"
     borderopacity="1"
     objecttolerance="10"
     gridtolerance="10"
     guidetolerance="10"
     inkscape:pageopacity="0"
     inkscape:pageshadow="2"
     inkscape:window-width="1080"
     inkscape:window-height="1858"
     id="namedview25"
     showgrid="false"
     inkscape:zoom="1"
     inkscape:cx="-111.54312"
     inkscape:cy="-346.7392"
     inkscape:window-x="-8"
     inkscape:window-y="-8"
     inkscape:window-maximized="1"
     inkscape:current-layer="100 Pressure Reading" />
  <defs
     id="defs6" />
  <g
     style="fill:none;fill-rule:evenodd;stroke:none;stroke-width:1"
     id="100 Pressure Reading"
     transform="translate(0.6779661,-17.491526)">
    <g
       id="g4184"
       transform="matrix(0.5375854,0,0,0.5375854,0.09443585,13.140671)">
      <path
         inkscape:export-ydpi="48.380001"
         inkscape:export-xdpi="48.380001"
         sodipodi:nodetypes="ccccsssccsssccs"
         d="m 11.806814,30.650111 3.858671,-10.961333 3.578549,10.961333 z m 16.474059,-9.443639 c 0,-7.158427 -5.710809,-12.9614795 -12.755448,-12.9614795 -7.0446408,0 -12.7554491,5.8030525 -12.7554491,12.9614795 0,1.884956 0.3959724,3.675935 1.108003,5.291729 -0.6952577,0.290607 -1.3355003,0.60693 -1.9130415,0.945552 -0.8484402,-1.901652 -1.32086956,-4.013405 -1.32086956,-6.237281 0,-8.351499 6.66260956,-15.1217261 14.88135716,-15.1217261 8.218747,0 14.881356,6.7702271 14.881356,15.1217261 0,2.223876 -0.472428,4.335629 -1.320869,6.237281 -0.577541,-0.338622 -1.217784,-0.654945 -1.913042,-0.945552 0.71203,-1.615794 1.108003,-3.406773 1.108003,-5.291729 z"
         id="Oval 278 copy 2"
         inkscape:connector-curvature="0"
         style="fill:#000000" />
      <path
         inkscape:export-ydpi="48.380001"
         inkscape:export-xdpi="48.380001"
         d="m 4.3232551,16.709675 6.1127569,3.888116 2.266649,-3.572907 -6.1127583,-3.888118 -2.2666483,3.572905 z m 0,0"
         id="path11"
         inkscape:connector-curvature="0"
         style="fill:#30c100;stroke:#000000;stroke-width:0;stroke-miterlimit:4;stroke-dasharray:none" />
      <path
         inkscape:export-ydpi="48.380001"
         inkscape:export-xdpi="48.380001"
         d="m 13.190301,9.4944875 0.09264,7.3831405 4.230991,-0.04041 -0.09264,-7.3831424 -4.230992,0.040418 z m 0,0"
         id="path17"
         inkscape:connector-curvature="0"
         style="fill:#ffda00;stroke:#000000;stroke-width:0;stroke-miterlimit:4;stroke-dasharray:none" />
      <path
         inkscape:export-ydpi="48.380001"
         inkscape:export-xdpi="48.380001"
         d="m 23.638308,12.289997 -5.784869,4.370523 2.536707,3.386398 5.784871,-4.370521 -2.536708,-3.3864 z m 0,0"
         id="path19"
         inkscape:connector-curvature="0"
         style="fill:#ff7700;stroke:#000000;stroke-width:0;stroke-miterlimit:4;stroke-dasharray:none" />
      <path
         inkscape:export-ydpi="48.380001"
         inkscape:export-xdpi="48.380001"
         d="m 27.414571,20.856804 -7.52173,0.189616 0.08428,4.230181 7.521729,-0.189616 -0.08428,-4.230181 z m 0,0"
         id="path21"
         inkscape:connector-curvature="0"
         style="fill:#ff0000;stroke:#000000;stroke-width:0;stroke-miterlimit:4;stroke-dasharray:none" />
      <path
         inkscape:export-ydpi="48.380001"
         inkscape:export-xdpi="48.380001"
         d="m 3.6988394,25.276601 7.6519396,-0.06857 -0.03101,-4.231108 -7.6519379,0.06857 0.031008,4.231104 z m 0,0"
         id="path23"
         inkscape:connector-curvature="0"
         style="fill:#097b00;stroke:#000000;stroke-width:0;stroke-miterlimit:4;stroke-dasharray:none" />
      <circle
         r="4.0000029"
         cy="30.813557"
         cx="15.525425"
         id="path4182"
         style="fill:#000000;fill-opacity:1;stroke:#000000;stroke-width:0;stroke-linejoin:round;stroke-miterlimit:4;stroke-dasharray:none;stroke-opacity:1" />
    </g>
  </g>
</svg>
