<?xml version="1.0" encoding="UTF-8" standalone="no"?>
<svg
   xmlns:dc="http://purl.org/dc/elements/1.1/"
   xmlns:cc="http://creativecommons.org/ns#"
   xmlns:rdf="http://www.w3.org/1999/02/22-rdf-syntax-ns#"
   xmlns:svg="http://www.w3.org/2000/svg"
   xmlns="http://www.w3.org/2000/svg"
   xmlns:sodipodi="http://sodipodi.sourceforge.net/DTD/sodipodi-0.dtd"
   xmlns:inkscape="http://www.inkscape.org/namespaces/inkscape"
   id="Layer_1"
   version="1.1"
   viewBox="0 0 16 16"
   xml:space="preserve"
   inkscape:version="0.91 r13725"
   sodipodi:docname="if_Configuration_2202267.svg"
   width="16"
   height="16"><metadata
     id="metadata15"><rdf:RDF><cc:Work
         rdf:about=""><dc:format>image/svg+xml</dc:format><dc:type
           rdf:resource="http://purl.org/dc/dcmitype/StillImage" /><dc:title></dc:title></cc:Work></rdf:RDF></metadata><defs
     id="defs13" /><sodipodi:namedview
     pagecolor="#ffffff"
     bordercolor="#666666"
     borderopacity="1"
     objecttolerance="10"
     gridtolerance="10"
     guidetolerance="10"
     inkscape:pageopacity="0"
     inkscape:pageshadow="2"
     inkscape:window-width="1080"
     inkscape:window-height="1858"
     id="namedview11"
     showgrid="false"
     inkscape:zoom="1"
     inkscape:cx="23.947985"
     inkscape:cy="2.5394707"
     inkscape:window-x="-8"
     inkscape:window-y="-8"
     inkscape:window-maximized="1"
     inkscape:current-layer="Layer_1" /><path
     style="stroke-width:0.2;stroke-miterlimit:4;stroke-dasharray:none"
     d="m 8.9082031,0.54492188 c -1.036364,0 -1.8542261,0.71681342 -2.1269531,1.65429692 l -6.78125,0 0,1.1035156 6.78125,0 c 0.218182,0.937485 1.0905891,1.6542969 2.1269531,1.6542968 1.036363,0 1.8561789,-0.7168118 2.1289059,-1.6542968 l 4.962891,0 0,-1.1035156 -4.962891,0 C 10.818926,1.2617353 9.9445661,0.54492187 8.9082031,0.54492188 Z m 0,1.10351562 c 0.6,0 1.0917969,0.4969079 1.0917969,1.1035156 0,0.6066078 -0.4917969,1.1015625 -1.0917969,1.1015625 -0.6,0 -1.0898437,-0.4949547 -1.0898437,-1.1015625 0,-0.6066077 0.4898437,-1.1035156 1.0898437,-1.1035156 z"
     id="path5"
     inkscape:connector-curvature="0"
     sodipodi:nodetypes="sccccsccccssssss"
     inkscape:export-xdpi="89.599998"
     inkscape:export-ydpi="89.599998" /><path
     style="stroke-width:2;stroke-miterlimit:4;stroke-dasharray:none"
     d="m 10.908203,10.777344 c -1.0363638,0 -1.854226,0.760073 -2.126953,1.753906 l -8.78125,0 0,1.169922 8.78125,0 c 0.218182,0.993833 1.0905892,1.753906 2.126953,1.753906 1.036363,0 1.856179,-0.760073 2.128906,-1.753906 l 3.035157,0 0,-1.169922 -3.035157,0 c -0.272727,-0.993833 -1.092543,-1.753906 -2.128906,-1.753906 z m 0,1.169922 c 0.6,0 1.091797,0.5249 1.091797,1.167968 0,0.643068 -0.491797,1.169922 -1.091797,1.169922 -0.6,0 -1.0898436,-0.526854 -1.0898436,-1.169922 0,-0.643068 0.4898436,-1.167968 1.0898436,-1.167968 z"
     id="path7"
     inkscape:connector-curvature="0"
     sodipodi:nodetypes="sccccsccccssssss"
     inkscape:export-xdpi="89.599998"
     inkscape:export-ydpi="89.599998" /><path
     style="stroke-width:2;stroke-miterlimit:4;stroke-dasharray:none"
     d="m 5.0917969,5.6621094 c -1.0363635,0 -1.8561793,0.7312325 -2.1289063,1.6875 l -2.9628906,0 0,1.125 2.9628906,0 c 0.218181,0.9562675 1.0925428,1.6874996 2.1289063,1.6874996 1.0363635,0 1.8542261,-0.7312321 2.1269531,-1.6874996 l 8.853516,0 0,-1.125 -8.853516,0 c -0.272727,-0.9562675 -1.0905896,-1.6875 -2.1269531,-1.6875 z m 0,1.125 c 0.6,0 1.0898437,0.5062389 1.0898437,1.125 0,0.6187612 -0.4898437,1.125 -1.0898437,1.125 -0.6,0 -1.0917969,-0.5062388 -1.0917969,-1.125 0,-0.6187611 0.4917969,-1.125 1.0917969,-1.125 z"
     id="path9"
     inkscape:connector-curvature="0"
     sodipodi:nodetypes="sccccsccccssssss"
     inkscape:export-xdpi="89.599998"
     inkscape:export-ydpi="89.599998" /></svg>